# Blender v2.93.3 OBJ File: 'molkky.blend'
# www.blender.org
mtllib molkky.mtl
o Cylinder.001
v 0.254842 0.820055 1.003591
v 0.254842 2.049159 1.003591
v 0.206314 0.820055 0.998811
v 0.206314 2.033107 0.998811
v 0.159651 0.820055 0.984656
v 0.159651 2.049159 0.984656
v 0.116646 0.820055 0.961669
v 0.116646 2.087631 0.961669
v 0.078952 0.820055 0.930734
v 0.078952 2.134797 0.930734
v 0.048017 0.820055 0.893040
v 0.048017 2.191919 0.893040
v 0.025030 0.820055 0.850035
v 0.025030 2.254885 0.850035
v 0.010875 0.820055 0.803372
v 0.010875 2.322206 0.803372
v 0.006095 0.820055 0.754844
v 0.006095 2.386505 0.754844
v 0.010875 0.820055 0.706316
v 0.010875 2.454232 0.706316
v 0.025030 0.820055 0.659652
v 0.025030 2.515409 0.659652
v 0.048017 0.820055 0.616647
v 0.048017 2.575524 0.616647
v 0.078952 0.820055 0.578953
v 0.078952 2.619017 0.578953
v 0.116646 0.820055 0.548018
v 0.117941 2.666814 0.541843
v 0.159651 0.820055 0.525032
v 0.161272 2.704372 0.517301
v 0.206314 0.820055 0.510876
v 0.207610 2.735806 0.504696
v 0.254842 0.820055 0.506097
v 0.252939 2.753161 0.502474
v 0.303370 0.820055 0.510876
v 0.303370 2.756271 0.510876
v 0.350034 0.820055 0.525032
v 0.350034 2.749014 0.525032
v 0.393039 0.820055 0.548018
v 0.393039 2.732857 0.548018
v 0.430733 0.820055 0.578953
v 0.430733 2.702451 0.578953
v 0.461668 0.820055 0.616647
v 0.461668 2.663148 0.616647
v 0.484654 0.820055 0.659652
v 0.484654 2.612341 0.659652
v 0.498810 0.820055 0.706316
v 0.498810 2.557796 0.706316
v 0.503589 0.820055 0.754844
v 0.503589 2.500592 0.754844
v 0.498810 0.820055 0.803372
v 0.498810 2.440220 0.803372
v 0.484654 0.820055 0.850035
v 0.484654 2.373619 0.850035
v 0.461668 0.820055 0.893040
v 0.461668 2.309291 0.893040
v 0.430733 0.820055 0.930734
v 0.430733 2.238742 0.930734
v 0.393039 0.820055 0.961669
v 0.393039 2.175031 0.961669
v 0.350034 0.820055 0.984656
v 0.350034 2.123497 0.984656
v 0.303370 0.820055 0.998811
v 0.303370 2.079559 0.998811
v 0.254842 1.334666 1.003591
v 0.254842 1.658818 1.003591
v 0.254842 2.025370 1.003591
v 0.206314 2.025370 0.998811
v 0.206314 1.658818 0.998811
v 0.206314 1.334666 0.998811
v 0.159651 2.025370 0.984656
v 0.159651 1.658818 0.984656
v 0.159651 1.334666 0.984656
v 0.116646 2.025370 0.961669
v 0.116646 1.658818 0.961669
v 0.116646 1.334666 0.961669
v 0.078952 2.025370 0.930734
v 0.078952 1.658818 0.930734
v 0.078952 1.334666 0.930734
v 0.048017 2.025370 0.893040
v 0.048017 1.658818 0.893040
v 0.048017 1.334666 0.893040
v 0.025030 2.025370 0.850035
v 0.025030 1.658818 0.850035
v 0.025030 1.334666 0.850035
v 0.010875 2.025370 0.803372
v 0.010875 1.658818 0.803372
v 0.010875 1.334666 0.803372
v 0.006095 2.025370 0.754844
v 0.006095 1.658818 0.754844
v 0.006095 1.334666 0.754844
v 0.010875 2.025370 0.706316
v 0.010875 1.658818 0.706316
v 0.010875 1.334666 0.706316
v 0.025030 2.025370 0.659652
v 0.025030 1.658818 0.659652
v 0.025030 1.334666 0.659652
v 0.048017 2.025370 0.616647
v 0.048017 1.658818 0.616647
v 0.048017 1.334666 0.616647
v 0.078952 2.025370 0.578953
v 0.078952 1.658818 0.578953
v 0.078952 1.334666 0.578953
v 0.116646 2.025370 0.548018
v 0.116646 1.658818 0.548018
v 0.116646 1.334666 0.548018
v 0.159651 2.025370 0.525032
v 0.159651 1.658818 0.525032
v 0.159651 1.334666 0.525032
v 0.206314 2.025370 0.510876
v 0.206314 1.658818 0.510876
v 0.206314 1.334666 0.510876
v 0.254842 2.025370 0.506097
v 0.254842 1.658818 0.506097
v 0.254842 1.334666 0.506097
v 0.303370 2.025370 0.510876
v 0.303370 1.658818 0.510876
v 0.303370 1.334666 0.510876
v 0.350034 2.025370 0.525032
v 0.350034 1.658818 0.525032
v 0.350034 1.334666 0.525032
v 0.393039 2.025370 0.548018
v 0.393039 1.658818 0.548018
v 0.393039 1.334666 0.548018
v 0.430733 2.025370 0.578953
v 0.430733 1.658818 0.578953
v 0.430733 1.334666 0.578953
v 0.461668 2.025370 0.616647
v 0.461668 1.658818 0.616647
v 0.461668 1.334666 0.616647
v 0.484654 2.025370 0.659652
v 0.484654 1.658818 0.659652
v 0.484654 1.334666 0.659652
v 0.498810 2.025370 0.706316
v 0.498810 1.658818 0.706316
v 0.498810 1.334666 0.706316
v 0.503589 2.025370 0.754844
v 0.503589 1.658818 0.754844
v 0.503589 1.334666 0.754844
v 0.498810 2.025370 0.803372
v 0.498810 1.658818 0.803372
v 0.498810 1.334666 0.803372
v 0.484654 2.025370 0.850035
v 0.484654 1.658818 0.850035
v 0.484654 1.334666 0.850035
v 0.461668 2.025370 0.893040
v 0.461668 1.658818 0.893040
v 0.461668 1.334666 0.893040
v 0.430733 2.025370 0.930734
v 0.430733 1.658818 0.930734
v 0.430733 1.334666 0.930734
v 0.393039 2.025370 0.961669
v 0.393039 1.658818 0.961669
v 0.393039 1.334666 0.961669
v 0.350034 2.025370 0.984656
v 0.350034 1.658818 0.984656
v 0.350034 1.334666 0.984656
v 0.303370 2.025370 0.998811
v 0.303370 1.658818 0.998811
v 0.303370 1.334666 0.998811
vt 0.629072 0.292162
vt 0.642147 0.292162
vt 0.633324 0.217432
vt 0.629072 0.217432
vt 0.642147 0.145574
vt 0.629072 0.145574
vt 0.663293 0.079349
vt 0.629072 0.079349
vt 0.689218 0.021302
vt 0.629072 0.021302
vt 0.720614 0.079349
vt 0.629072 0.079349
vt 0.755223 0.145574
vt 0.629072 0.145574
vt 0.792225 0.217432
vt 0.629072 0.217432
vt 0.827566 0.292162
vt 0.629072 0.292162
vt 0.864791 0.366892
vt 0.629072 0.366892
vt 0.898417 0.438751
vt 0.629072 0.438751
vt 0.931458 0.504976
vt 0.629072 0.504976
vt 0.955364 0.563023
vt 0.629072 0.563023
vt 0.580669 0.025045
vt 0.883908 0.025045
vt 0.904086 0.078990
vt 0.580669 0.078990
vt 0.922204 0.140537
vt 0.580669 0.140537
vt 0.939325 0.207318
vt 0.580669 0.207318
vt 0.950311 0.276769
vt 0.580669 0.276769
vt 0.954018 0.346219
vt 0.580669 0.346219
vt 0.950311 0.413000
vt 0.580669 0.413000
vt 0.942058 0.474547
vt 0.580669 0.474547
vt 0.926526 0.528492
vt 0.580669 0.528492
vt 0.906450 0.474547
vt 0.580669 0.474547
vt 0.880497 0.413000
vt 0.580669 0.413000
vt 0.852635 0.346219
vt 0.580669 0.346219
vt 0.823416 0.276769
vt 0.580669 0.276769
vt 0.792577 0.207318
vt 0.580669 0.207318
vt 0.758557 0.140537
vt 0.580669 0.140537
vt 0.725698 0.078990
vt 0.580669 0.078990
vt 0.689661 0.025045
vt 0.580669 0.025045
vt 0.629072 0.563023
vt 0.746350 0.563023
vt 0.711332 0.504976
vt 0.629072 0.504976
vt 0.683007 0.438751
vt 0.629072 0.438751
vt 0.131896 0.614057
vt 0.148321 0.613818
vt 0.164466 0.617858
vt 0.179710 0.626021
vt 0.193467 0.637994
vt 0.205208 0.653317
vt 0.214483 0.671400
vt 0.220934 0.691550
vt 0.224315 0.712990
vt 0.224494 0.734899
vt 0.221465 0.756433
vt 0.215345 0.776766
vt 0.206368 0.795115
vt 0.194880 0.810775
vt 0.181322 0.823146
vt 0.166216 0.831751
vt 0.150141 0.836259
vt 0.133715 0.836498
vt 0.117570 0.832459
vt 0.102326 0.824295
vt 0.088569 0.812322
vt 0.076828 0.797000
vt 0.067553 0.778916
vt 0.061102 0.758767
vt 0.057722 0.737326
vt 0.057542 0.715417
vt 0.060571 0.693883
vt 0.066692 0.673551
vt 0.075668 0.655201
vt 0.087156 0.639541
vt 0.100714 0.627170
vt 0.115821 0.618565
vt 0.658856 0.366892
vt 0.629072 0.366892
vt 0.656220 0.863479
vt 0.699554 0.857787
vt 0.741222 0.840927
vt 0.779623 0.813550
vt 0.813283 0.776706
vt 0.840906 0.731811
vt 0.861432 0.680591
vt 0.874072 0.625013
vt 0.878340 0.567215
vt 0.874072 0.509417
vt 0.861432 0.453840
vt 0.840906 0.402620
vt 0.813283 0.357725
vt 0.779623 0.320881
vt 0.741222 0.293503
vt 0.699554 0.276644
vt 0.656220 0.270951
vt 0.612887 0.276644
vt 0.571219 0.293503
vt 0.532817 0.320881
vt 0.499158 0.357725
vt 0.471535 0.402620
vt 0.451009 0.453840
vt 0.438369 0.509417
vt 0.434101 0.567215
vt 0.438369 0.625014
vt 0.451009 0.680591
vt 0.471535 0.731811
vt 0.499158 0.776706
vt 0.532817 0.813550
vt 0.571219 0.840927
vt 0.612887 0.857787
vt 0.061434 0.366892
vt 0.392268 0.366892
vt 0.392268 0.292162
vt 0.061434 0.292162
vt 0.510670 0.366892
vt 0.510670 0.292162
vt 0.061434 0.438751
vt 0.392268 0.438751
vt 0.510670 0.438751
vt 0.061434 0.504976
vt 0.392268 0.504976
vt 0.510670 0.504976
vt 0.061434 0.563022
vt 0.392268 0.563023
vt 0.510670 0.563023
vt 0.053135 0.078990
vt 0.360595 0.078990
vt 0.360595 0.025045
vt 0.053135 0.025045
vt 0.470632 0.078990
vt 0.470632 0.025045
vt 0.053135 0.140537
vt 0.360595 0.140537
vt 0.470632 0.140537
vt 0.053135 0.207318
vt 0.360595 0.207318
vt 0.470632 0.207318
vt 0.053135 0.276768
vt 0.360595 0.276769
vt 0.470632 0.276769
vt 0.053135 0.346219
vt 0.360595 0.346219
vt 0.470632 0.346219
vt 0.053135 0.413000
vt 0.360595 0.413000
vt 0.470632 0.413000
vt 0.053135 0.474547
vt 0.360595 0.474547
vt 0.470632 0.474547
vt 0.053135 0.528492
vt 0.360595 0.528492
vt 0.470632 0.528492
vt 0.053135 0.474547
vt 0.360595 0.474547
vt 0.470632 0.474547
vt 0.053135 0.413000
vt 0.360595 0.413000
vt 0.470632 0.413000
vt 0.053135 0.346219
vt 0.360595 0.346219
vt 0.470632 0.346219
vt 0.053135 0.276769
vt 0.360595 0.276769
vt 0.470632 0.276769
vt 0.053135 0.207318
vt 0.360595 0.207318
vt 0.470632 0.207318
vt 0.053135 0.140537
vt 0.360595 0.140537
vt 0.470632 0.140537
vt 0.053135 0.078990
vt 0.360595 0.078990
vt 0.470632 0.078990
vt 0.053135 0.025045
vt 0.360595 0.025045
vt 0.470632 0.025045
vt 0.061434 0.504976
vt 0.392268 0.504976
vt 0.392268 0.563023
vt 0.061434 0.563022
vt 0.510670 0.504976
vt 0.510670 0.563023
vt 0.061434 0.438751
vt 0.392268 0.438751
vt 0.510670 0.438751
vt 0.061434 0.366892
vt 0.392268 0.366892
vt 0.510670 0.366892
vt 0.061434 0.292162
vt 0.392268 0.292162
vt 0.510670 0.292162
vt 0.061434 0.217432
vt 0.392268 0.217432
vt 0.510670 0.217432
vt 0.061434 0.145574
vt 0.392268 0.145574
vt 0.510670 0.145574
vt 0.061434 0.079349
vt 0.392268 0.079349
vt 0.510670 0.079349
vt 0.061434 0.021302
vt 0.392268 0.021302
vt 0.510670 0.021302
vt 0.061434 0.079349
vt 0.392268 0.079349
vt 0.510670 0.079349
vt 0.061434 0.145574
vt 0.392268 0.145574
vt 0.510670 0.145574
vt 0.061434 0.217432
vt 0.392268 0.217432
vt 0.510670 0.217432
vt 0.000000 0.000000
vt 0.000000 0.000000
vt 0.000000 0.000000
vt 0.000000 0.000000
vt 0.000000 0.000000
vt 0.000000 0.000000
vt 0.000000 0.000000
vt 0.000000 0.000000
vt 0.000000 0.000000
vt 0.000000 0.000000
vt 0.000000 0.000000
vt 0.000000 0.000000
vt 0.000000 0.000000
vt 0.000000 0.000000
vt 0.000000 0.000000
vt 0.000000 0.000000
vt 0.000000 0.000000
vt 0.000000 0.000000
vt 0.000000 0.000000
vt 0.000000 0.000000
vt 0.000000 0.000000
vt 0.000000 0.000000
vt 0.000000 0.000000
vt 0.000000 0.000000
vt 0.000000 0.000000
vt 0.000000 0.000000
vt 0.000000 0.000000
vt 0.000000 0.000000
vt 0.000000 0.000000
vt 0.000000 0.000000
vt 0.000000 0.000000
vt 0.000000 0.000000
vn -0.0980 0.0000 0.9952
vn -0.2903 0.0000 0.9569
vn -0.4714 0.0000 0.8819
vn -0.6344 0.0000 0.7730
vn -0.7730 0.0000 0.6344
vn -0.8819 0.0000 0.4714
vn -0.9569 0.0000 0.2903
vn -0.9952 0.0000 0.0980
vn -0.9952 0.0000 -0.0980
vn -0.9569 0.0000 -0.2903
vn -0.8819 0.0000 -0.4714
vn -0.7730 0.0000 -0.6344
vn -0.6627 -0.0030 -0.7489
vn -0.4795 -0.0082 -0.8775
vn -0.2737 -0.0091 -0.9618
vn -0.0731 -0.0068 -0.9973
vn 0.1321 -0.0023 -0.9912
vn 0.2903 0.0000 -0.9569
vn 0.4714 0.0000 -0.8819
vn 0.6344 0.0000 -0.7730
vn 0.7730 0.0000 -0.6344
vn 0.8819 0.0000 -0.4714
vn 0.9569 0.0000 -0.2903
vn 0.9952 0.0000 -0.0980
vn 0.9952 0.0000 0.0980
vn 0.9569 0.0000 0.2903
vn 0.8819 0.0000 0.4714
vn 0.7730 0.0000 0.6344
vn 0.6344 0.0000 0.7730
vn 0.4714 0.0000 0.8819
vn -0.1443 0.5818 0.8004
vn 0.2903 0.0000 0.9569
vn 0.0980 0.0000 0.9952
vn 0.0000 -1.0000 0.0000
vn 0.0980 0.0000 -0.9952
vn -0.0980 0.0000 -0.9952
vn -0.2903 0.0000 -0.9569
vn -0.4714 0.0000 -0.8819
vn -0.6344 0.0000 -0.7730
usemtl Material.001
s off
f 67/1/1 2/2/1 4/3/1 68/4/1
f 68/4/2 4/3/2 6/5/2 71/6/2
f 71/6/3 6/5/3 8/7/3 74/8/3
f 74/8/4 8/7/4 10/9/4 77/10/4
f 77/10/5 10/9/5 12/11/5 80/12/5
f 80/12/6 12/11/6 14/13/6 83/14/6
f 83/14/7 14/13/7 16/15/7 86/16/7
f 86/16/8 16/15/8 18/17/8 89/18/8
f 89/18/9 18/17/9 20/19/9 92/20/9
f 92/20/10 20/19/10 22/21/10 95/22/10
f 95/22/11 22/21/11 24/23/11 98/24/11
f 98/24/12 24/23/12 26/25/12 101/26/12
f 101/27/13 26/28/13 28/29/13 104/30/13
f 104/30/14 28/29/14 30/31/14 107/32/14
f 107/32/15 30/31/15 32/33/15 110/34/15
f 110/34/16 32/33/16 34/35/16 113/36/16
f 113/36/17 34/35/17 36/37/17 116/38/17
f 116/38/18 36/37/18 38/39/18 119/40/18
f 119/40/19 38/39/19 40/41/19 122/42/19
f 122/42/20 40/41/20 42/43/20 125/44/20
f 125/44/21 42/43/21 44/45/21 128/46/21
f 128/46/22 44/45/22 46/47/22 131/48/22
f 131/48/23 46/47/23 48/49/23 134/50/23
f 134/50/24 48/49/24 50/51/24 137/52/24
f 137/52/25 50/51/25 52/53/25 140/54/25
f 140/54/26 52/53/26 54/55/26 143/56/26
f 143/56/27 54/55/27 56/57/27 146/58/27
f 146/58/28 56/57/28 58/59/28 149/60/28
f 149/61/29 58/62/29 60/63/29 152/64/29
f 152/64/30 60/63/30 62/65/30 155/66/30
f 4/67/31 2/68/31 64/69/31 62/70/31 60/71/31 58/72/31 56/73/31 54/74/31 52/75/31 50/76/31 48/77/31 46/78/31 44/79/31 42/80/31 40/81/31 38/82/31 36/83/31 34/84/31 32/85/31 30/86/31 28/87/31 26/88/31 24/89/31 22/90/31 20/91/31 18/92/31 16/93/31 14/94/31 12/95/31 10/96/31 8/97/31 6/98/31
f 155/66/32 62/65/32 64/99/32 158/100/32
f 158/100/33 64/99/33 2/2/33 67/1/33
f 1/101/34 3/102/34 5/103/34 7/104/34 9/105/34 11/106/34 13/107/34 15/108/34 17/109/34 19/110/34 21/111/34 23/112/34 25/113/34 27/114/34 29/115/34 31/116/34 33/117/34 35/118/34 37/119/34 39/120/34 41/121/34 43/122/34 45/123/34 47/124/34 49/125/34 51/126/34 53/127/34 55/128/34 57/129/34 59/130/34 61/131/34 63/132/34
f 63/133/33 160/134/33 65/135/33 1/136/33
f 160/134/33 159/137/33 66/138/33 65/135/33
f 159/137/33 158/100/33 67/1/33 66/138/33
f 61/139/32 157/140/32 160/134/32 63/133/32
f 157/140/32 156/141/32 159/137/32 160/134/32
f 156/141/32 155/66/32 158/100/32 159/137/32
f 59/142/30 154/143/30 157/140/30 61/139/30
f 154/143/30 153/144/30 156/141/30 157/140/30
f 153/144/30 152/64/30 155/66/30 156/141/30
f 57/145/29 151/146/29 154/143/29 59/142/29
f 151/146/29 150/147/29 153/144/29 154/143/29
f 150/147/29 149/61/29 152/64/29 153/144/29
f 55/148/28 148/149/28 151/150/28 57/151/28
f 148/149/28 147/152/28 150/153/28 151/150/28
f 147/152/28 146/58/28 149/60/28 150/153/28
f 53/154/27 145/155/27 148/149/27 55/148/27
f 145/155/27 144/156/27 147/152/27 148/149/27
f 144/156/27 143/56/27 146/58/27 147/152/27
f 51/157/26 142/158/26 145/155/26 53/154/26
f 142/158/26 141/159/26 144/156/26 145/155/26
f 141/159/26 140/54/26 143/56/26 144/156/26
f 49/160/25 139/161/25 142/158/25 51/157/25
f 139/161/25 138/162/25 141/159/25 142/158/25
f 138/162/25 137/52/25 140/54/25 141/159/25
f 47/163/24 136/164/24 139/161/24 49/160/24
f 136/164/24 135/165/24 138/162/24 139/161/24
f 135/165/24 134/50/24 137/52/24 138/162/24
f 45/166/23 133/167/23 136/164/23 47/163/23
f 133/167/23 132/168/23 135/165/23 136/164/23
f 132/168/23 131/48/23 134/50/23 135/165/23
f 43/169/22 130/170/22 133/167/22 45/166/22
f 130/170/22 129/171/22 132/168/22 133/167/22
f 129/171/22 128/46/22 131/48/22 132/168/22
f 41/172/21 127/173/21 130/170/21 43/169/21
f 127/173/21 126/174/21 129/171/21 130/170/21
f 126/174/21 125/44/21 128/46/21 129/171/21
f 39/175/20 124/176/20 127/173/20 41/172/20
f 124/176/20 123/177/20 126/174/20 127/173/20
f 123/177/20 122/42/20 125/44/20 126/174/20
f 37/178/19 121/179/19 124/176/19 39/175/19
f 121/179/19 120/180/19 123/177/19 124/176/19
f 120/180/19 119/40/19 122/42/19 123/177/19
f 35/181/18 118/182/18 121/179/18 37/178/18
f 118/182/18 117/183/18 120/180/18 121/179/18
f 117/183/18 116/38/18 119/40/18 120/180/18
f 33/184/35 115/185/35 118/182/35 35/181/35
f 115/185/35 114/186/35 117/183/35 118/182/35
f 114/186/35 113/36/35 116/38/35 117/183/35
f 31/187/36 112/188/36 115/185/36 33/184/36
f 112/188/36 111/189/36 114/186/36 115/185/36
f 111/189/36 110/34/36 113/36/36 114/186/36
f 29/190/37 109/191/37 112/188/37 31/187/37
f 109/191/37 108/192/37 111/189/37 112/188/37
f 108/192/37 107/32/37 110/34/37 111/189/37
f 27/193/38 106/194/38 109/191/38 29/190/38
f 106/194/38 105/195/38 108/192/38 109/191/38
f 105/195/38 104/30/38 107/32/38 108/192/38
f 25/196/39 103/197/39 106/194/39 27/193/39
f 103/197/39 102/198/39 105/195/39 106/194/39
f 102/198/39 101/27/39 104/30/39 105/195/39
f 23/199/12 100/200/12 103/201/12 25/202/12
f 100/200/12 99/203/12 102/204/12 103/201/12
f 99/203/12 98/24/12 101/26/12 102/204/12
f 21/205/11 97/206/11 100/200/11 23/199/11
f 97/206/11 96/207/11 99/203/11 100/200/11
f 96/207/11 95/22/11 98/24/11 99/203/11
f 19/208/10 94/209/10 97/206/10 21/205/10
f 94/209/10 93/210/10 96/207/10 97/206/10
f 93/210/10 92/20/10 95/22/10 96/207/10
f 17/211/9 91/212/9 94/209/9 19/208/9
f 91/212/9 90/213/9 93/210/9 94/209/9
f 90/213/9 89/18/9 92/20/9 93/210/9
f 15/214/8 88/215/8 91/212/8 17/211/8
f 88/215/8 87/216/8 90/213/8 91/212/8
f 87/216/8 86/16/8 89/18/8 90/213/8
f 13/217/7 85/218/7 88/215/7 15/214/7
f 85/218/7 84/219/7 87/216/7 88/215/7
f 84/219/7 83/14/7 86/16/7 87/216/7
f 11/220/6 82/221/6 85/218/6 13/217/6
f 82/221/6 81/222/6 84/219/6 85/218/6
f 81/222/6 80/12/6 83/14/6 84/219/6
f 9/223/5 79/224/5 82/221/5 11/220/5
f 79/224/5 78/225/5 81/222/5 82/221/5
f 78/225/5 77/10/5 80/12/5 81/222/5
f 7/226/4 76/227/4 79/224/4 9/223/4
f 76/227/4 75/228/4 78/225/4 79/224/4
f 75/228/4 74/8/4 77/10/4 78/225/4
f 5/229/3 73/230/3 76/227/3 7/226/3
f 73/230/3 72/231/3 75/228/3 76/227/3
f 72/231/3 71/6/3 74/8/3 75/228/3
f 3/232/2 70/233/2 73/230/2 5/229/2
f 70/233/2 69/234/2 72/231/2 73/230/2
f 69/234/2 68/4/2 71/6/2 72/231/2
f 1/136/1 65/135/1 70/233/1 3/232/1
f 65/135/1 66/138/1 69/234/1 70/233/1
f 66/138/1 67/1/1 68/4/1 69/234/1
f 157/235/34 160/236/34 65/237/34 70/238/34 73/239/34 76/240/34 79/241/34 82/242/34 85/243/34 88/244/34 91/245/34 94/246/34 97/247/34 100/248/34 103/249/34 106/250/34 109/251/34 112/252/34 115/253/34 118/254/34 121/255/34 124/256/34 127/257/34 130/258/34 133/259/34 136/260/34 139/261/34 142/262/34 145/263/34 148/264/34 151/265/34 154/266/34
